<?xml version="1.0" encoding="UTF-8"?>
<svg width="10px" height="11px" viewBox="0 0 10 11" version="1.1" xmlns="http://www.w3.org/2000/svg" xmlns:xlink="http://www.w3.org/1999/xlink">
    <title></title>
    <g id="POS" stroke="none" stroke-width="1" fill="none" fill-rule="evenodd">
        <g id="POS-/-Checkout" transform="translate(-767.000000, -574.000000)" fill="#7CE7AC" fill-rule="nonzero">
            <path d="M772,584.792 C772.912,584.792 773.756,584.564 774.532,584.108 C775.284,583.676 775.876,583.084 776.308,582.332 C776.764,581.556 776.992,580.712 776.992,579.8 C776.992,578.888 776.764,578.044 776.308,577.268 C775.876,576.516 775.284,575.924 774.532,575.492 C773.756,575.036 772.912,574.808 772,574.808 C771.096,574.808 770.256,575.036 769.48,575.492 C768.728,575.932 768.132,576.528 767.692,577.28 C767.236,578.056 767.008,578.896 767.008,579.8 C767.008,580.704 767.236,581.544 767.692,582.32 C768.124,583.072 768.716,583.668 769.468,584.108 C770.244,584.564 771.088,584.792 772,584.792 Z M772,583.808 C771.28,583.808 770.608,583.624 769.984,583.256 C769.376,582.904 768.896,582.424 768.544,581.816 C768.176,581.192 767.992,580.52 767.992,579.8 C767.992,579.08 768.176,578.408 768.544,577.784 C768.896,577.176 769.376,576.696 769.984,576.344 C770.608,575.976 771.28,575.792 772,575.792 C772.72,575.792 773.392,575.976 774.016,576.344 C774.624,576.696 775.104,577.176 775.456,577.784 C775.824,578.408 776.008,579.08 776.008,579.8 C776.008,580.52 775.824,581.192 775.456,581.816 C775.104,582.424 774.624,582.904 774.016,583.256 C773.392,583.624 772.72,583.808 772,583.808 Z M772.492,582.308 L772.492,580.292 L774.508,580.292 L774.508,579.308 L772.492,579.308 L772.492,577.292 L771.508,577.292 L771.508,579.308 L769.492,579.308 L769.492,580.292 L771.508,580.292 L771.508,582.308 L772.492,582.308 Z" id=""></path>
        </g>
    </g>
</svg>