<?xml version="1.0" encoding="UTF-8"?>
<svg width="12px" height="9px" viewBox="0 0 12 9" version="1.1" xmlns="http://www.w3.org/2000/svg" xmlns:xlink="http://www.w3.org/1999/xlink">
    <title></title>
    <g id="POS" stroke="none" stroke-width="1" fill="none" fill-rule="evenodd">
        <g id="POS-/-Dropdowns-&amp;-Delivery" transform="translate(-865.000000, -136.000000)" fill="#CECECE" fill-rule="nonzero">
            <path d="M872.176,137.776 L872.176,136.6 L865.176,136.6 L865.176,137.776 L872.176,137.776 Z M874.5,144.776 L874.5,142.424 L876.824,142.424 L876.824,141.276 L874.5,141.276 L874.5,138.924 L873.324,138.924 L873.324,141.276 L871,141.276 L871,142.424 L873.324,142.424 L873.324,144.776 L874.5,144.776 Z M872.176,140.1 L872.176,138.924 L865.176,138.924 L865.176,140.1 L872.176,140.1 Z M869.824,142.424 L869.824,141.276 L865.176,141.276 L865.176,142.424 L869.824,142.424 Z" id=""></path>
        </g>
    </g>
</svg>