<?xml version="1.0" encoding="UTF-8"?>
<svg width="52px" height="33px" viewBox="0 0 52 33" version="1.1" xmlns="http://www.w3.org/2000/svg" xmlns:xlink="http://www.w3.org/1999/xlink">
    <title></title>
    <g id="POS" stroke="none" stroke-width="1" fill="none" fill-rule="evenodd">
        <g id="POS-/-Return-products-/-Refund-complete" transform="translate(-486.000000, -214.000000)" fill="#919191" fill-rule="nonzero">
            <g id="Popup" transform="translate(252.000000, 60.000000)">
                <g id="Title" transform="translate(0.000000, 10.000000)">
                    <path d="M286,170.25 L286,144.25 L234,144.25 L234,170.25 L286,170.25 Z M253.601562,167 L242.125,167 C242.125,165.645833 241.651042,164.494792 240.703125,163.546875 C239.755208,162.598958 238.604167,162.125 237.25,162.125 L237.25,162.125 L237.25,154 C239.010417,154 240.533854,153.356771 241.820312,152.070312 C243.106771,150.783854 243.75,149.260417 243.75,147.5 L243.75,147.5 L253.601562,147.5 C251.367188,150.072917 250.25,153.322917 250.25,157.25 C250.25,161.177083 251.367188,164.427083 253.601562,167 L253.601562,167 Z M277.875,167 L266.398438,167 C268.632812,164.427083 269.75,161.177083 269.75,157.25 C269.75,153.322917 268.632812,150.072917 266.398438,147.5 L266.398438,147.5 L276.25,147.5 C276.25,149.260417 276.893229,150.783854 278.179688,152.070312 C279.466146,153.356771 280.989583,154 282.75,154 L282.75,154 L282.75,162.125 C281.395833,162.125 280.244792,162.598958 279.296875,163.546875 C278.348958,164.494792 277.875,165.645833 277.875,167 L277.875,167 Z M260.914062,163.75 L259.085938,163.75 L259.085938,162.835938 C258.950521,162.835938 258.679688,162.768229 258.273438,162.632812 C257.799479,162.565104 257.291667,162.328125 256.75,161.921875 C256.34375,161.583333 256.005208,161.210938 255.734375,160.804688 C255.463542,160.127604 255.328125,159.585938 255.328125,159.179688 L255.328125,159.179688 L257.359375,159.179688 C257.359375,159.382812 257.427083,159.6875 257.5625,160.09375 C257.630208,160.364583 257.833333,160.601562 258.171875,160.804688 C258.375,160.940104 258.679688,161.075521 259.085938,161.210938 L259.085938,161.210938 L259.085938,157.65625 L259.085938,157.65625 L258.679688,157.65625 C258.476562,157.65625 258.341146,157.622396 258.273438,157.554688 C257.867188,157.486979 257.460938,157.317708 257.054688,157.046875 C256.851562,156.911458 256.580729,156.674479 256.242188,156.335938 C256.039062,156.200521 255.903646,155.963542 255.835938,155.625 C255.768229,155.421875 255.734375,155.151042 255.734375,154.8125 C255.734375,154.40625 255.869792,153.932292 256.140625,153.390625 C256.34375,153.052083 256.648438,152.713542 257.054688,152.375 C257.325521,152.171875 257.799479,152.002604 258.476562,151.867188 C258.747396,151.731771 258.950521,151.664062 259.085938,151.664062 L259.085938,151.664062 L259.085938,150.75 L260.914062,150.75 L260.914062,151.664062 C261.117188,151.664062 261.354167,151.731771 261.625,151.867188 C262.166667,152.002604 262.640625,152.205729 263.046875,152.476562 C263.453125,152.747396 263.757812,153.119792 263.960938,153.59375 C264.231771,154.135417 264.367188,154.575521 264.367188,154.914062 L264.367188,154.914062 L262.335938,154.914062 C262.268229,154.304688 262.03125,153.864583 261.625,153.59375 C261.557292,153.59375 261.438802,153.559896 261.269531,153.492188 C261.10026,153.424479 260.981771,153.356771 260.914062,153.289062 L260.914062,153.289062 L260.914062,156.4375 L260.914062,156.4375 L261.320312,156.4375 C261.523438,156.4375 261.658854,156.471354 261.726562,156.539062 C262.132812,156.674479 262.369792,156.742188 262.4375,156.742188 C262.708333,156.809896 263.046875,156.979167 263.453125,157.25 C263.65625,157.385417 263.893229,157.588542 264.164062,157.859375 C264.299479,157.994792 264.434896,158.265625 264.570312,158.671875 C264.638021,158.875 264.671875,159.145833 264.671875,159.484375 C264.671875,160.161458 264.536458,160.669271 264.265625,161.007812 C263.859375,161.549479 263.520833,161.921875 263.25,162.125 C262.979167,162.328125 262.505208,162.497396 261.828125,162.632812 C261.421875,162.768229 261.117188,162.835938 260.914062,162.835938 L260.914062,162.835938 L260.914062,163.75 Z M259.085938,155.929688 L259.085938,153.289062 C258.950521,153.289062 258.747396,153.356771 258.476562,153.492188 C258.205729,153.627604 258.036458,153.763021 257.96875,153.898438 C257.833333,154.169271 257.765625,154.40625 257.765625,154.609375 C257.765625,154.880208 257.901042,155.151042 258.171875,155.421875 C258.442708,155.692708 258.747396,155.861979 259.085938,155.929688 L259.085938,155.929688 Z M243.75,160.5 C245.916667,160.5 247,159.416667 247,157.25 C247,155.083333 245.916667,154 243.75,154 C241.583333,154 240.5,155.083333 240.5,157.25 C240.5,159.416667 241.583333,160.5 243.75,160.5 Z M276.25,160.5 C278.416667,160.5 279.5,159.416667 279.5,157.25 C279.5,155.083333 278.416667,154 276.25,154 C274.083333,154 273,155.083333 273,157.25 C273,159.416667 274.083333,160.5 276.25,160.5 Z M261.21875,161.3125 L261.320312,161.210938 L262.132812,160.804688 C262.268229,160.736979 262.403646,160.567708 262.539062,160.296875 C262.606771,160.161458 262.640625,159.958333 262.640625,159.6875 C262.640625,159.28125 262.539062,158.976562 262.335938,158.773438 C262.200521,158.638021 261.997396,158.502604 261.726562,158.367188 C261.658854,158.299479 261.523438,158.248698 261.320312,158.214844 C261.117188,158.18099 260.981771,158.164062 260.914062,158.164062 L260.914062,158.164062 L260.914062,161.3125 L260.914062,161.3125 L261.21875,161.3125 Z M286,176.75 L286,173.5 L234,173.5 L234,176.75 L286,176.75 Z" id=""></path>
                </g>
            </g>
        </g>
    </g>
</svg>