<?xml version="1.0" encoding="UTF-8"?>
<svg width="28px" height="28px" viewBox="0 0 28 28" version="1.1" xmlns="http://www.w3.org/2000/svg" xmlns:xlink="http://www.w3.org/1999/xlink">
    <title></title>
    <g id="POS" stroke="none" stroke-width="1" fill="none" fill-rule="evenodd">
        <g id="Login-/-Empty" transform="translate(-423.000000, -539.000000)" fill="#FFFFFF" fill-rule="nonzero">
            <path d="M425.384,546.432 L431.496,541.312 L429.8,539.296 L423.688,544.416 L425.384,546.432 Z M448.616,546.496 L450.312,544.416 L444.2,539.296 L442.504,541.312 L448.616,546.496 Z M437,566.112 C439.176,566.112 441.192,565.568 443.048,564.48 C444.861333,563.413333 446.301333,561.973333 447.368,560.16 C448.456,558.304 449,556.288 449,554.112 C449,551.936 448.456,549.92 447.368,548.064 C446.301333,546.250667 444.861333,544.810667 443.048,543.744 C441.192,542.656 439.176,542.112 437,542.112 C434.824,542.112 432.808,542.656 430.952,543.744 C429.138667,544.810667 427.698667,546.250667 426.632,548.064 C425.544,549.92 425,551.936 425,554.112 C425,556.288 425.544,558.304 426.632,560.16 C427.698667,561.973333 429.138667,563.413333 430.952,564.48 C432.808,565.568 434.824,566.112 437,566.112 Z M437,563.488 C435.293333,563.488 433.725333,563.061333 432.296,562.208 C430.888,561.376 429.768,560.245333 428.936,558.816 C428.104,557.386667 427.688,555.818667 427.688,554.112 C427.688,552.405333 428.104,550.837333 428.936,549.408 C429.768,548 430.888,546.88 432.296,546.048 C433.725333,545.216 435.293333,544.8 437,544.8 C438.706667,544.8 440.274667,545.216 441.704,546.048 C443.112,546.88 444.232,548 445.064,549.408 C445.896,550.837333 446.312,552.405333 446.312,554.112 C446.312,555.818667 445.896,557.386667 445.064,558.816 C444.232,560.245333 443.112,561.376 441.704,562.208 C440.274667,563.061333 438.706667,563.488 437,563.488 Z M441.992,559.232 L443.016,557.6 L437.704,554.496 L437.704,547.488 L435.688,547.488 L435.688,555.488 L441.992,559.232 Z" id=""></path>
        </g>
    </g>
</svg>