<?xml version="1.0" encoding="UTF-8"?>
<svg width="66px" height="67px" viewBox="0 0 66 67" version="1.1" xmlns="http://www.w3.org/2000/svg" xmlns:xlink="http://www.w3.org/1999/xlink">
    <title></title>
    <g id="POS" stroke="none" stroke-width="1" fill="none" fill-rule="evenodd">
        <g id="Time-clock-/-Empty" transform="translate(-479.000000, -49.000000)" fill="#919191" fill-rule="nonzero">
            <path d="M483.686,67.178 L498.584,54.698 L494.45,49.784 L479.552,62.264 L483.686,67.178 Z M540.314,67.334 L544.448,62.264 L529.55,49.784 L525.416,54.698 L540.314,67.334 Z M512,115.148 C517.304,115.148 522.218,113.822 526.742,111.17 C531.162,108.57 534.672,105.06 537.272,100.64 C539.924,96.116 541.25,91.202 541.25,85.898 C541.25,80.594 539.924,75.68 537.272,71.156 C534.672,66.736 531.162,63.226 526.742,60.626 C522.218,57.974 517.304,56.648 512,56.648 C506.696,56.648 501.782,57.974 497.258,60.626 C492.838,63.226 489.328,66.736 486.728,71.156 C484.076,75.68 482.75,80.594 482.75,85.898 C482.75,91.202 484.076,96.116 486.728,100.64 C489.328,105.06 492.838,108.57 497.258,111.17 C501.782,113.822 506.696,115.148 512,115.148 Z M512,108.752 C507.84,108.752 504.018,107.712 500.534,105.632 C497.102,103.604 494.372,100.848 492.344,97.364 C490.316,93.88 489.302,90.058 489.302,85.898 C489.302,81.738 490.316,77.916 492.344,74.432 C494.372,71 497.102,68.27 500.534,66.242 C504.018,64.214 507.84,63.2 512,63.2 C516.16,63.2 519.982,64.214 523.466,66.242 C526.898,68.27 529.628,71 531.656,74.432 C533.684,77.916 534.698,81.738 534.698,85.898 C534.698,90.058 533.684,93.88 531.656,97.364 C529.628,100.848 526.898,103.604 523.466,105.632 C519.982,107.712 516.16,108.752 512,108.752 Z M524.168,98.378 L526.664,94.4 L513.716,86.834 L513.716,69.752 L508.802,69.752 L508.802,89.252 L524.168,98.378 Z" id=""></path>
        </g>
    </g>
</svg>