<?xml version="1.0" encoding="UTF-8"?>
<svg width="20px" height="15px" viewBox="0 0 20 15" version="1.1" xmlns="http://www.w3.org/2000/svg" xmlns:xlink="http://www.w3.org/1999/xlink">
    <title></title>
    <g id="POS" stroke="none" stroke-width="1" fill="none" fill-rule="evenodd">
        <g id="Settings-/-Hardware-/-Hardware" transform="translate(-308.000000, -213.000000)" fill="#7CE7AC" fill-rule="nonzero">
            <g id="Group-2" transform="translate(288.000000, 70.000000)">
                <g id="Group-2-Copy-5" transform="translate(20.000000, 140.000000)">
                    <path d="M18.1699346,17.5533769 C18.6637618,17.5533769 19.0849673,17.3718228 19.4335512,17.0087146 C19.7821351,16.6456064 19.956427,16.2171387 19.956427,15.7233115 L19.956427,15.7233115 L20,4.83006536 C20,4.3362382 19.8184459,3.90777052 19.4553377,3.54466231 C19.0922295,3.1815541 18.6637618,3 18.1699346,3 L18.1699346,3 L1.83006536,3 C1.3362382,3 0.907770516,3.1815541 0.544662309,3.54466231 C0.181554103,3.90777052 0,4.3362382 0,4.83006536 L0,4.83006536 L0,15.7233115 C0,16.2171387 0.181554103,16.6456064 0.544662309,17.0087146 C0.907770516,17.3718228 1.3362382,17.5533769 1.83006536,17.5533769 L1.83006536,17.5533769 L18.1699346,17.5533769 Z M16.3398693,15.7233115 L3.66013072,15.7233115 L3.66013072,4.83006536 L16.3398693,4.83006536 L16.3398693,15.7233115 Z" id=""></path>
                </g>
            </g>
        </g>
    </g>
</svg>