<?xml version="1.0" encoding="UTF-8"?>
<svg width="20px" height="20px" viewBox="0 0 20 20" version="1.1" xmlns="http://www.w3.org/2000/svg" xmlns:xlink="http://www.w3.org/1999/xlink">
    <title></title>
    <g id="POS" stroke="none" stroke-width="1" fill="none" fill-rule="evenodd">
        <g id="Settings-/-Hardware-/-Hardware" transform="translate(-308.000000, -90.000000)" fill="#7CE7AC" fill-rule="nonzero">
            <g id="Group-2" transform="translate(288.000000, 70.000000)">
                <g id="Group-2-Copy-3" transform="translate(20.000000, 20.000000)">
                    <path d="M14.1071429,20 C14.5535714,20 14.9330357,19.84375 15.2455357,19.53125 C15.5580357,19.21875 15.7142857,18.8392857 15.7142857,18.3928571 L15.7142857,14.1071429 L18.3928571,14.1071429 C18.8392857,14.1071429 19.21875,13.9508929 19.53125,13.6383929 C19.84375,13.3258929 20,12.9464286 20,12.5 L20,5.71428571 C20,5.26785714 19.84375,4.88839286 19.53125,4.57589286 C19.21875,4.26339286 18.8392857,4.10714286 18.3928571,4.10714286 L15.7142857,4.10714286 L15.7142857,1.60714286 C15.7142857,1.16071429 15.5580357,0.78125 15.2455357,0.46875 C14.9330357,0.15625 14.5535714,0 14.1071429,0 L5.89285714,0 C5.44642857,0 5.06696429,0.15625 4.75446429,0.46875 C4.44196429,0.78125 4.28571429,1.16071429 4.28571429,1.60714286 L4.28571429,4.10714286 L1.60714286,4.10714286 C1.16071429,4.10714286 0.78125,4.26339286 0.46875,4.57589286 C0.15625,4.88839286 0,5.26785714 0,5.71428571 L0,12.5 C0,12.9464286 0.15625,13.3258929 0.46875,13.6383929 C0.78125,13.9508929 1.16071429,14.1071429 1.60714286,14.1071429 L4.28571429,14.1071429 L4.28571429,18.3928571 C4.28571429,18.8392857 4.44196429,19.21875 4.75446429,19.53125 C5.06696429,19.84375 5.44642857,20 5.89285714,20 L14.1071429,20 Z M14.0848214,4.10714286 L5.91517857,4.10714286 C5.90029762,4.10714286 5.89285714,4.09970238 5.89285714,4.08482143 L5.89285714,1.62946429 C5.89285714,1.61458333 5.90029762,1.60714286 5.91517857,1.60714286 L14.0848214,1.60714286 C14.0997024,1.60714286 14.1071429,1.61458333 14.1071429,1.62946429 L14.1071429,4.08482143 C14.1071429,4.09970238 14.0997024,4.10714286 14.0848214,4.10714286 Z M4.28571429,12.5 L1.60714286,12.5 L1.60714286,5.71428571 L18.3928571,5.71428571 L18.3928571,12.5 L15.7142857,12.5 L15.7142857,10.1785714 C15.7142857,9.73214286 15.5580357,9.35267857 15.2455357,9.04017857 C14.9330357,8.72767857 14.5535714,8.57142857 14.1071429,8.57142857 L5.89285714,8.57142857 C5.44642857,8.57142857 5.06696429,8.72767857 4.75446429,9.04017857 C4.44196429,9.35267857 4.28571429,9.73214286 4.28571429,10.1785714 L4.28571429,12.5 Z M16.875,8.03571429 C17.0982143,8.03571429 17.2879464,7.95758929 17.4441964,7.80133929 C17.6004464,7.64508929 17.6785714,7.45535714 17.6785714,7.23214286 C17.6785714,7.00892857 17.6004464,6.81919643 17.4441964,6.66294643 C17.2879464,6.50669643 17.0982143,6.42857143 16.875,6.42857143 C16.6517857,6.42857143 16.4583333,6.51041667 16.2946429,6.67410714 C16.1458333,6.82291667 16.0714286,7.00892857 16.0714286,7.23214286 C16.0714286,7.45535714 16.1495536,7.64508929 16.3058036,7.80133929 C16.4620536,7.95758929 16.6517857,8.03571429 16.875,8.03571429 Z M14.1071429,18.3928571 L5.89285714,18.3928571 L5.89285714,10.1785714 L14.1071429,10.1785714 L14.1071429,18.3928571 Z M12.6785714,13.2142857 L12.6785714,11.6071429 L7.32142857,11.6071429 L7.32142857,13.2142857 L12.6785714,13.2142857 Z M12.6785714,16.9642857 L12.6785714,15.3571429 L7.32142857,15.3571429 L7.32142857,16.9642857 L12.6785714,16.9642857 Z" id=""></path>
                </g>
            </g>
        </g>
    </g>
</svg>