<?xml version="1.0" encoding="UTF-8"?>
<svg width="20px" height="23px" viewBox="0 0 20 23" version="1.1" xmlns="http://www.w3.org/2000/svg" xmlns:xlink="http://www.w3.org/1999/xlink">
    <title></title>
    <g id="POS" stroke="none" stroke-width="1" fill="none" fill-rule="evenodd">
        <g id="Settings-/-Hardware-/-Hardware" transform="translate(-308.000000, -149.000000)" fill="#7CE7AC" fill-rule="nonzero">
            <g id="Group-2" transform="translate(288.000000, 70.000000)">
                <g id="Group-2-Copy-4" transform="translate(20.000000, 79.000000)">
                    <path d="M20,22.1866667 L20,0 L18.3466667,1.65333333 L16.6666667,0 L15.0133333,1.65333333 L13.3333333,0 L11.68,1.65333333 L10,0 L8.34666667,1.65333333 L6.66666667,0 L5.01333333,1.65333333 L3.33333333,0 L1.68,1.65333333 L0,0 L0,22.1866667 L1.68,20.5333333 L3.33333333,22.1866667 L5.01333333,20.5333333 L6.66666667,22.1866667 L8.34666667,20.5333333 L10,22.1866667 L11.68,20.5333333 L13.3333333,22.1866667 L15.0133333,20.5333333 L16.6666667,22.1866667 L18.3466667,20.5333333 L20,22.1866667 Z M16.6666667,7.76 L3.33333333,7.76 L3.33333333,5.52 L16.6666667,5.52 L16.6666667,7.76 Z M16.6666667,12.1866667 L3.33333333,12.1866667 L3.33333333,10 L16.6666667,10 L16.6666667,12.1866667 Z M16.6666667,16.6666667 L3.33333333,16.6666667 L3.33333333,14.4266667 L16.6666667,14.4266667 L16.6666667,16.6666667 Z" id=""></path>
                </g>
            </g>
        </g>
    </g>
</svg>