<?xml version="1.0" encoding="UTF-8"?>
<svg width="15px" height="12px" viewBox="0 0 15 12" version="1.1" xmlns="http://www.w3.org/2000/svg" xmlns:xlink="http://www.w3.org/1999/xlink">
    <title></title>
    <g id="POS" stroke="none" stroke-width="1" fill="none" fill-rule="evenodd">
        <g id="POS-/-Empty" transform="translate(-766.000000, -64.000000)" fill="#7CE7AC" fill-rule="nonzero">
            <path d="M775,70 C775.833333,70 776.541667,69.7083333 777.125,69.125 C777.708333,68.5416667 778,67.8333333 778,67 C778,66.1666667 777.708333,65.4583333 777.125,64.875 C776.541667,64.2916667 775.833333,64 775,64 C774.166667,64 773.458333,64.2916667 772.875,64.875 C772.291667,65.4583333 772,66.1666667 772,67 C772,67.8333333 772.291667,68.5416667 772.875,69.125 C773.458333,69.7083333 774.166667,70 775,70 Z M769,72 L769,70 L771,70 L771,69 L769,69 L769,67 L768,67 L768,69 L766,69 L766,70 L768,70 L768,72 L769,72 Z M781,76 L781,74.5 C781,73.6041667 780.3125,72.8802083 778.9375,72.328125 C777.5625,71.7760417 776.25,71.5 775,71.5 C773.75,71.5 772.4375,71.78125 771.0625,72.34375 C769.6875,72.8854167 769,73.6041667 769,74.5 L769,74.5 L769,76 L781,76 Z" id=""></path>
        </g>
    </g>
</svg>