<?xml version="1.0" encoding="UTF-8"?>
<svg width="14px" height="9px" viewBox="0 0 14 9" version="1.1" xmlns="http://www.w3.org/2000/svg" xmlns:xlink="http://www.w3.org/1999/xlink">
    <title></title>
    <g id="POS" stroke="none" stroke-width="1" fill="none" fill-rule="evenodd">
        <g id="POS-/-Dropdowns-&amp;-Delivery" transform="translate(-864.000000, -166.000000)" fill="#CECECE" fill-rule="nonzero">
            <path d="M875.074,174.174 C875.615333,174.174 876.107667,174.045667 876.551,173.789 C876.994333,173.532333 877.346667,173.184667 877.608,172.746 C877.869333,172.307333 878,171.817333 878,171.276 C878,170.762667 877.883333,170.293667 877.65,169.869 C877.416667,169.444333 877.099333,169.099 876.698,168.833 C876.296667,168.567 875.848667,168.415333 875.354,168.378 L875.354,168.378 L873.002,166.026 L870.426,166.026 L870.426,167.174 L872.498,167.174 L873.674,168.35 L866.926,168.35 C866.384667,168.35 865.892333,168.480667 865.449,168.742 C865.005667,169.003333 864.653333,169.355667 864.392,169.799 C864.130667,170.242333 864,170.734667 864,171.276 C864,171.817333 864.130667,172.307333 864.392,172.746 C864.653333,173.184667 865.005667,173.532333 865.449,173.789 C865.892333,174.045667 866.384667,174.174 866.926,174.174 C867.392667,174.174 867.826667,174.073667 868.228,173.873 C868.629333,173.672333 868.965333,173.397 869.236,173.047 C869.506667,172.697 869.684,172.298 869.768,171.85 L869.768,171.85 L870.734,171.85 L872.344,170.24 C872.232,170.557333 872.176,170.902667 872.176,171.276 C872.176,171.817333 872.304333,172.307333 872.561,172.746 C872.817667,173.184667 873.165333,173.532333 873.604,173.789 C874.042667,174.045667 874.532667,174.174 875.074,174.174 Z M875.074,173.026 C874.766,173.026 874.476667,172.946667 874.206,172.788 C873.935333,172.629333 873.720667,172.414667 873.562,172.144 C873.403333,171.873333 873.324,171.584 873.324,171.276 C873.324,170.968 873.403333,170.678667 873.562,170.408 C873.720667,170.137333 873.935333,169.922667 874.206,169.764 C874.476667,169.605333 874.766,169.526 875.074,169.526 C875.382,169.526 875.671333,169.605333 875.942,169.764 C876.212667,169.922667 876.427333,170.137333 876.586,170.408 C876.744667,170.678667 876.824,170.968 876.824,171.276 C876.824,171.584 876.744667,171.873333 876.586,172.144 C876.427333,172.414667 876.212667,172.629333 875.942,172.788 C875.671333,172.946667 875.382,173.026 875.074,173.026 Z M866.926,173.026 C866.618,173.026 866.328667,172.946667 866.058,172.788 C865.787333,172.629333 865.572667,172.414667 865.414,172.144 C865.255333,171.873333 865.176,171.584 865.176,171.276 C865.176,170.968 865.255333,170.678667 865.414,170.408 C865.572667,170.137333 865.787333,169.922667 866.058,169.764 C866.328667,169.605333 866.618,169.526 866.926,169.526 C867.299333,169.526 867.635333,169.631 867.934,169.841 C868.232667,170.051 868.442667,170.328667 868.564,170.674 L868.564,170.674 L866.926,170.674 L866.926,171.85 L868.564,171.85 C868.442667,172.195333 868.230333,172.477667 867.927,172.697 C867.623667,172.916333 867.29,173.026 866.926,173.026 Z" id=""></path>
        </g>
    </g>
</svg>