<?xml version="1.0" encoding="UTF-8"?>
<svg width="18px" height="18px" viewBox="0 0 18 18" version="1.1" xmlns="http://www.w3.org/2000/svg" xmlns:xlink="http://www.w3.org/1999/xlink">
    <title></title>
    <g id="POS" stroke="none" stroke-width="1" fill="none" fill-rule="evenodd">
        <g id="Time-clock-/-Empty" transform="translate(-428.000000, -543.000000)" fill="#FFFFFF" fill-rule="nonzero">
            <path d="M443.515625,548.015625 C444.203125,548.015625 444.789062,547.773438 445.273438,547.289062 C445.757812,546.804688 446,546.203125 446,545.484375 C446,544.765625 445.765625,544.171875 445.296875,543.703125 C444.828125,543.234375 444.234375,543 443.515625,543 C442.796875,543 442.195312,543.242188 441.710938,543.726562 C441.226562,544.210938 440.984375,544.796875 440.984375,545.484375 C440.984375,546.203125 441.226562,546.804688 441.710938,547.289062 C442.195312,547.773438 442.796875,548.015625 443.515625,548.015625 Z M437,548.015625 C437.6875,548.015625 438.273438,547.773438 438.757812,547.289062 C439.242188,546.804688 439.484375,546.203125 439.484375,545.484375 C439.484375,544.765625 439.242188,544.171875 438.757812,543.703125 C438.273438,543.234375 437.6875,543 437,543 C436.3125,543 435.71875,543.234375 435.21875,543.703125 C434.75,544.171875 434.515625,544.765625 434.515625,545.484375 C434.515625,546.203125 434.757812,546.804688 435.242188,547.289062 C435.726562,547.773438 436.3125,548.015625 437,548.015625 Z M430.484375,548.015625 C431.203125,548.015625 431.804688,547.773438 432.289062,547.289062 C432.773438,546.804688 433.015625,546.203125 433.015625,545.484375 C433.015625,544.796875 432.773438,544.210938 432.289062,543.726562 C431.804688,543.242188 431.203125,543 430.484375,543 C429.765625,543 429.171875,543.234375 428.703125,543.703125 C428.234375,544.171875 428,544.765625 428,545.484375 C428,546.203125 428.242188,546.804688 428.726562,547.289062 C429.210938,547.773438 429.796875,548.015625 430.484375,548.015625 Z M443.515625,554.484375 C444.234375,554.484375 444.828125,554.242188 445.296875,553.757812 C445.765625,553.273438 446,552.6875 446,552 C446,551.3125 445.765625,550.726562 445.296875,550.242188 C444.828125,549.757812 444.234375,549.515625 443.515625,549.515625 C442.796875,549.515625 442.1875,549.765625 441.6875,550.265625 C441.21875,550.734375 440.984375,551.3125 440.984375,552 C440.984375,552.6875 441.226562,553.273438 441.710938,553.757812 C442.195312,554.242188 442.796875,554.484375 443.515625,554.484375 Z M437,554.484375 C437.6875,554.484375 438.273438,554.242188 438.757812,553.757812 C439.242188,553.273438 439.484375,552.6875 439.484375,552 C439.484375,551.3125 439.242188,550.726562 438.757812,550.242188 C438.273438,549.757812 437.6875,549.515625 437,549.515625 C436.3125,549.515625 435.71875,549.765625 435.21875,550.265625 C434.75,550.734375 434.515625,551.3125 434.515625,552 C434.515625,552.6875 434.757812,553.273438 435.242188,553.757812 C435.726562,554.242188 436.3125,554.484375 437,554.484375 Z M430.484375,554.484375 C431.203125,554.484375 431.804688,554.242188 432.289062,553.757812 C432.773438,553.273438 433.015625,552.6875 433.015625,552 C433.015625,551.3125 432.773438,550.726562 432.289062,550.242188 C431.804688,549.757812 431.203125,549.515625 430.484375,549.515625 C429.765625,549.515625 429.171875,549.765625 428.703125,550.265625 C428.234375,550.734375 428,551.3125 428,552 C428,552.6875 428.234375,553.273438 428.703125,553.757812 C429.171875,554.242188 429.765625,554.484375 430.484375,554.484375 Z M443.515625,561 C444.234375,561 444.828125,560.765625 445.296875,560.296875 C445.765625,559.828125 446,559.234375 446,558.515625 C446,557.796875 445.757812,557.195312 445.273438,556.710938 C444.789062,556.226562 444.203125,555.984375 443.515625,555.984375 C442.796875,555.984375 442.195312,556.226562 441.710938,556.710938 C441.226562,557.195312 440.984375,557.796875 440.984375,558.515625 C440.984375,559.203125 441.226562,559.789062 441.710938,560.273438 C442.195312,560.757812 442.796875,561 443.515625,561 Z M437,561 C437.6875,561 438.273438,560.765625 438.757812,560.296875 C439.242188,559.828125 439.484375,559.234375 439.484375,558.515625 C439.484375,557.796875 439.242188,557.195312 438.757812,556.710938 C438.273438,556.226562 437.6875,555.984375 437,555.984375 C436.3125,555.984375 435.71875,556.234375 435.21875,556.734375 C434.75,557.203125 434.515625,557.796875 434.515625,558.515625 C434.515625,559.234375 434.757812,559.828125 435.242188,560.296875 C435.726562,560.765625 436.3125,561 437,561 Z M430.484375,561 C431.203125,561 431.804688,560.757812 432.289062,560.273438 C432.773438,559.789062 433.015625,559.203125 433.015625,558.515625 C433.015625,557.796875 432.773438,557.195312 432.289062,556.710938 C431.804688,556.226562 431.203125,555.984375 430.484375,555.984375 C429.796875,555.984375 429.210938,556.226562 428.726562,556.710938 C428.242188,557.195312 428,557.796875 428,558.515625 C428,559.234375 428.234375,559.828125 428.703125,560.296875 C429.171875,560.765625 429.765625,561 430.484375,561 Z" id=""></path>
        </g>
    </g>
</svg>