<?xml version="1.0" encoding="UTF-8"?>
<svg width="14px" height="16px" viewBox="0 0 14 16" version="1.1" xmlns="http://www.w3.org/2000/svg" xmlns:xlink="http://www.w3.org/1999/xlink">
    <title></title>
    <g id="Symbols" stroke="none" stroke-width="1" fill="none" fill-rule="evenodd">
        <g id="POS-/-Sidenav" transform="translate(-196.000000, -33.000000)" fill="#FFFFFF" fill-rule="nonzero">
            <path d="M207.5,49 C208.052083,49 208.523438,48.8046875 208.914062,48.4140625 C209.304688,48.0234375 209.5,47.5520833 209.5,47 L209.5,41 C209.5,40.4479167 209.304688,39.9765625 208.914062,39.5859375 C208.523438,39.1953125 208.052083,39 207.5,39 L207,39 L207,37.09375 C207,36.5208333 206.901042,35.984375 206.703125,35.484375 C206.505208,34.984375 206.229167,34.5520833 205.875,34.1875 C205.520833,33.8229167 205.096354,33.5338542 204.601562,33.3203125 C204.106771,33.1067708 203.567708,33 202.984375,33 C202.390625,33 201.848958,33.1067708 201.359375,33.3203125 C200.869792,33.5338542 200.450521,33.8255208 200.101562,34.1953125 C199.752604,34.5651042 199.481771,35 199.289062,35.5 C199.096354,36 199,36.53125 199,37.09375 L199,39 L198.5,39 C197.947917,39 197.476562,39.1953125 197.085938,39.5859375 C196.695312,39.9765625 196.5,40.4479167 196.5,41 L196.5,47 C196.5,47.5520833 196.695312,48.0234375 197.085938,48.4140625 C197.476562,48.8046875 197.947917,49 198.5,49 L207.5,49 Z M206,39 L200,39 L200,37.09375 C200,36.2395833 200.270833,35.5104167 200.8125,34.90625 C201.354167,34.3020833 202.078125,34 202.984375,34 C203.880208,34 204.606771,34.2994792 205.164062,34.8984375 C205.721354,35.4973958 206,36.2291667 206,37.09375 L206,39 Z M207.5,48 L198.5,48 C198.229167,48 197.994792,47.9010417 197.796875,47.703125 C197.598958,47.5052083 197.5,47.2708333 197.5,47 L197.5,41 C197.5,40.7291667 197.598958,40.4947917 197.796875,40.296875 C197.994792,40.0989583 198.229167,40 198.5,40 L207.5,40 C207.770833,40 208.005208,40.0989583 208.203125,40.296875 C208.401042,40.4947917 208.5,40.7291667 208.5,41 L208.5,47 C208.5,47.2708333 208.401042,47.5052083 208.203125,47.703125 C208.005208,47.9010417 207.770833,48 207.5,48 Z M203,46 C203.135417,46 203.252604,45.9505208 203.351562,45.8515625 C203.450521,45.7526042 203.5,45.6354167 203.5,45.5 L203.5,43.859375 C203.645833,43.7760417 203.765625,43.6588542 203.859375,43.5078125 C203.953125,43.3567708 204,43.1875 204,43 C204,42.71875 203.903646,42.4817708 203.710938,42.2890625 C203.518229,42.0963542 203.28125,42 203,42 C202.71875,42 202.481771,42.0963542 202.289062,42.2890625 C202.096354,42.4817708 202,42.71875 202,43 C202,43.1875 202.046875,43.3567708 202.140625,43.5078125 C202.234375,43.6588542 202.354167,43.7760417 202.5,43.859375 L202.5,45.5 C202.5,45.6354167 202.549479,45.7526042 202.648438,45.8515625 C202.747396,45.9505208 202.864583,46 203,46 Z" id=""></path>
        </g>
    </g>
</svg>