<?xml version="1.0" encoding="UTF-8"?>
<svg width="12px" height="4px" viewBox="0 0 12 4" version="1.1" xmlns="http://www.w3.org/2000/svg" xmlns:xlink="http://www.w3.org/1999/xlink">
    <title></title>
    <g id="POS" stroke="none" stroke-width="1" fill="none" fill-rule="evenodd">
        <g id="POS-/-Empty" transform="translate(-999.000000, -24.000000)" fill="#7CE7AC" fill-rule="nonzero">
            <path d="M1005,27.212 C1005.408,27.212 1005.762,27.062 1006.062,26.762 C1006.362,26.462 1006.512,26.108 1006.512,25.7 C1006.512,25.292 1006.362,24.938 1006.062,24.638 C1005.762,24.338 1005.408,24.188 1005,24.188 C1004.592,24.188 1004.238,24.338 1003.938,24.638 C1003.638,24.938 1003.488,25.292 1003.488,25.7 C1003.488,26.108 1003.638,26.462 1003.938,26.762 C1004.238,27.062 1004.592,27.212 1005,27.212 Z M1009.5,27.212 C1009.908,27.212 1010.262,27.062 1010.562,26.762 C1010.862,26.462 1011.012,26.108 1011.012,25.7 C1011.012,25.292 1010.862,24.938 1010.562,24.638 C1010.262,24.338 1009.908,24.188 1009.5,24.188 C1009.092,24.188 1008.738,24.338 1008.438,24.638 C1008.138,24.938 1007.988,25.292 1007.988,25.7 C1007.988,26.108 1008.138,26.462 1008.438,26.762 C1008.738,27.062 1009.092,27.212 1009.5,27.212 Z M1000.5,27.212 C1000.908,27.212 1001.262,27.062 1001.562,26.762 C1001.862,26.462 1002.012,26.108 1002.012,25.7 C1002.012,25.292 1001.862,24.938 1001.562,24.638 C1001.262,24.338 1000.908,24.188 1000.5,24.188 C1000.092,24.188 999.738,24.338 999.438,24.638 C999.138,24.938 998.988,25.292 998.988,25.7 C998.988,26.108 999.138,26.462 999.438,26.762 C999.738,27.062 1000.092,27.212 1000.5,27.212 Z" id=""></path>
        </g>
    </g>
</svg>