<?xml version="1.0" encoding="UTF-8"?>
<svg width="12px" height="11px" viewBox="0 0 12 11" version="1.1" xmlns="http://www.w3.org/2000/svg" xmlns:xlink="http://www.w3.org/1999/xlink">
    <title></title>
    <g id="POS" stroke="none" stroke-width="1" fill="none" fill-rule="evenodd">
        <g id="Purchases-/-Popover" transform="translate(-864.000000, -74.000000)" fill="#7CE7AC" fill-rule="nonzero">
            <g id="Group-2" transform="translate(854.000000, 35.000000)">
                <path d="M19.1875,41.6875 L19.1875,39.5 L12.1875,39.5 L12.1875,41.6875 L19.1875,41.6875 Z M19.1875,50 L19.1875,47.6757812 L21.375,47.6757812 L21.375,43.875 C21.375,43.4010417 21.2018229,42.9908854 20.8554688,42.6445312 C20.5091146,42.2981771 20.0989583,42.125 19.625,42.125 L19.625,42.125 L11.75,42.125 C11.2760417,42.125 10.8658854,42.2981771 10.5195312,42.6445312 C10.1731771,42.9908854 10,43.4010417 10,43.875 L10,43.875 L10,47.6757812 L12.1875,47.6757812 L12.1875,50 L19.1875,50 Z M18.3125,49.125 L13.0625,49.125 L13.0625,45.625 L18.3125,45.625 L18.3125,49.125 Z" id=""></path>
            </g>
        </g>
    </g>
</svg>