<?xml version="1.0" encoding="UTF-8"?>
<svg width="12px" height="10px" viewBox="0 0 12 10" version="1.1" xmlns="http://www.w3.org/2000/svg" xmlns:xlink="http://www.w3.org/1999/xlink">
    <title></title>
    <g id="POS" stroke="none" stroke-width="1" fill="none" fill-rule="evenodd">
        <g id="Time-clock-/-Clock-in-POS" transform="translate(-438.000000, -509.000000)" fill="#7CE7AC" fill-rule="nonzero">
            <path d="M449.75,519 C449.916667,519 450,518.916667 450,518.75 L450,518.75 L450,511.25 C450,511.083333 449.916667,511 449.75,511 L449.75,511 L442,511 L442,509 L438,512 L442,515 L442,513 L448,513 L448,517 L440.25,517 C440.083333,517 440,517.083333 440,517.25 L440,517.25 L440,518.75 C440,518.916667 440.083333,519 440.25,519 L440.25,519 L449.75,519 Z" id=""></path>
        </g>
    </g>
</svg>