<?xml version="1.0" encoding="UTF-8"?>
<svg width="200px" height="88px" viewBox="0 0 200 88" version="1.1" xmlns="http://www.w3.org/2000/svg" xmlns:xlink="http://www.w3.org/1999/xlink">
    <title>System-logo</title>
    <g id="POS" stroke="none" stroke-width="1" fill="none" fill-rule="evenodd" opacity="0.815452939">
        <g id="Login-/-Empty" transform="translate(-412.000000, -60.000000)" fill="#000000" fill-rule="nonzero">
            <g id="System-logo" transform="translate(412.000000, 60.000000)">
                <g id="Group" transform="translate(60.000000, 0.000000)">
                    <path d="M5.47799502,42.0212766 C-0.221110111,33.0220566 -1.5720091,21.9103436 1.88966957,11.8126273 L1.88966957,11.8126273 C7.71542147,17.8121073 16.3696181,20.0513498 24.3483653,17.6853577 C32.3271125,15.3193656 38.3639424,8.72838757 40.0103505,0.531914894 L40.0103505,0.531914894 C41.6567587,8.72838757 47.6935886,15.3193656 55.6723357,17.6853577 C63.6510829,20.0513498 72.3052796,17.8121073 78.1310315,11.8126273 L78.1310315,11.8126273 C81.5504946,21.9103436 80.2418112,33.0220566 74.5004905,42.0212766 L74.5004905,42.0212766 C52.1684415,34.9655501 27.8522596,34.9655501 5.47799502,42.0212766" id="Path"></path>
                    <path d="M71.4666667,45.212766 C50.6814229,39.5390071 28.2519104,39.5390071 7.46666667,45.212766 C28.2519104,50.8865248 50.7235837,50.8865248 71.4666667,45.212766" id="Path"></path>
                </g>
                <g id="Group" transform="translate(0.000000, 65.000000)">
                    <path d="M1.68108864,18.3217304 C0.537948364,17.7201356 0,16.9180092 0,15.9153512 C0,15.4808661 0.100865318,15.046381 0.302595955,14.5784739 C0.504326591,14.1105669 0.806922546,13.7429256 1.17676205,13.4087063 C1.8491975,14.3445204 2.62249827,15.0798029 3.49666437,15.6145538 C4.37083046,16.1493048 5.41310541,16.4166802 6.62348923,16.4166802 C7.59852064,16.4166802 8.37182142,16.2495706 9.0106351,15.9487732 C9.61582701,15.6479758 9.91842296,15.1800687 9.91842296,14.5784739 C9.91842296,14.1439888 9.68307055,13.7763476 9.17874396,13.4755502 C8.67441737,13.2081747 7.9011166,12.8739554 6.7915981,12.5063141 C5.58121428,12.1052509 4.60618287,11.7041878 3.83288209,11.3031246 C3.05958132,10.9020614 2.38714587,10.3673105 1.81557573,9.66544989 C1.24400559,8.96358931 0.941409637,8.06119713 0.941409637,6.9916953 C0.941409637,5.72166187 1.34487091,4.61873811 2.15179346,3.74976786 C2.958716,2.88079762 4.0682345,2.21235898 5.44672719,1.77787386 C6.82521987,1.34338874 8.37182142,1.14285714 10.0529101,1.14285714 C11.2969156,1.14285714 12.4064341,1.27654487 13.3478438,1.54392033 C14.2892534,1.81129579 15.0289324,2.17893705 15.4996372,2.6468441 C16.0039638,3.11475115 16.2393162,3.682924 16.2393162,4.28451878 C16.2393162,5.08664516 15.9367203,5.7550838 15.3651501,6.22299086 C14.79358,6.69089791 14.0875228,6.92485144 13.2469785,6.92485144 C12.4400559,6.92485144 11.7339987,6.69089791 11.095185,6.25641279 C10.4563713,5.82192767 9.95204473,5.15348902 9.58220523,4.31794071 C8.60717382,4.41820651 7.76662951,4.65216004 7.12781582,5.01980129 C6.48900214,5.38744255 6.15278441,5.8553496 6.15278441,6.39010052 C6.15278441,6.85800757 6.4217586,7.25907076 6.92608519,7.52644622 C7.43041178,7.79382168 8.2709561,8.128041 9.3804746,8.46226032 C10.5908584,8.86332351 11.5658898,9.23096477 12.3391906,9.56518409 C13.1124914,9.93282535 13.7513051,10.4341543 14.3228752,11.102593 C14.8944453,11.7710316 15.1634195,12.6065799 15.1634195,13.6760818 C15.1634195,14.8792713 14.7599582,15.8819293 13.9530357,16.6840557 C13.1461131,17.519604 12.1038382,18.1211988 10.8262108,18.522262 C9.54858346,18.9233251 8.23733432,19.1238567 6.89246341,19.1238567 C4.53893932,19.2241225 2.79060714,18.9233251 1.68108864,18.3217304 Z" id="Path"></path>
                    <path d="M32.3055511,17.9455179 C31.4383598,18.7665505 30.5069322,19.1428571 29.5433863,19.1428571 C28.7083133,19.1428571 28.0659494,18.937599 27.6484128,18.5612924 C27.1987581,18.1507761 26.9418125,17.5692113 26.845458,16.7481787 L26.6206306,16.6113399 C25.9782667,17.4323725 25.2395482,18.048147 24.4044751,18.492873 C23.5694021,18.937599 22.6379744,19.1428571 21.6101922,19.1428571 C20.3897008,19.1428571 19.4582731,18.8007602 18.8480274,18.1507761 C18.2377817,17.5007919 17.9487179,16.5087108 17.9487179,15.1403231 C17.9487179,14.5245486 17.9808361,13.8745645 18.0771907,13.1903706 C18.1735453,12.5061768 18.3020181,11.6851441 18.4947273,10.7272727 C18.6232,10.0772886 18.7195546,9.4273044 18.8159092,8.77732024 C18.9122638,8.12733608 18.944382,7.57998099 18.944382,7.16946468 C18.944382,6.69052898 18.9122638,6.24580298 18.8159092,5.86949636 C18.7195546,5.45898004 18.6232,5.15109281 18.4626091,4.94583465 C19.104973,4.60373773 19.7473369,4.33006018 20.4539372,4.09059233 C21.1284192,3.85112449 21.7065468,3.74849541 22.0919651,3.74849541 C22.734329,3.74849541 23.1839837,3.88533418 23.4730475,4.15901172 C23.7621112,4.43268926 23.890584,4.87741527 23.890584,5.49318974 C23.890584,5.90370605 23.8263476,6.51948052 23.6657567,7.37472284 C23.5051657,8.22996516 23.3445747,9.11941717 23.1839837,10.0088692 C23.0233928,10.8641115 22.8628018,11.6851441 22.7022108,12.5061768 C22.5416198,13.3272094 22.4773834,13.9087742 22.4773834,14.2508711 C22.4773834,14.9008552 22.6058562,15.3455812 22.8628018,15.6534685 C23.1197473,15.9613557 23.5051657,16.0981945 24.051175,16.0981945 C24.5650661,16.0981945 25.0789572,15.927146 25.6249665,15.5850491 C26.1709759,15.2429522 26.6206306,14.7982262 27.0381671,14.2166614 C27.2629945,12.7798543 27.680531,10.590434 28.3228949,7.61419069 L27.0381671,5.56160912 C28.0980676,4.87741527 28.9652588,4.39847957 29.6718591,4.12480203 C30.3463412,3.85112449 30.9887051,3.71428571 31.5989508,3.71428571 C32.2091965,3.71428571 32.6588512,3.85112449 32.9157968,4.12480203 C33.1727424,4.39847957 33.3333333,4.87741527 33.3333333,5.52739943 C33.3333333,5.73265759 33.2690969,6.1431739 33.1727424,6.69052898 C33.0442696,7.27209376 32.9157968,7.88786823 32.787324,8.53785239 C32.4340239,10.1114983 32.1449601,11.4456763 31.952251,12.6088058 C31.7595418,13.7719354 31.631069,14.7640165 31.631069,15.6192588 C31.5668326,16.7481787 31.8237782,17.5007919 32.3055511,17.9455179 Z" id="Path"></path>
                    <path d="M37.359214,18.2916667 C36.9438454,17.735119 36.7521368,16.8839286 36.7521368,15.7380952 C36.7521368,15.1160714 36.8799425,14.0029762 37.135554,12.4315476 C37.3911654,10.860119 37.7106798,8.79761905 38.1579998,6.30952381 C38.2219027,5.78571429 38.317757,5.32738095 38.3816599,4.93452381 C38.4455627,4.54166667 38.5094656,4.18154762 38.5733685,3.88690476 L37.2953111,1.98809524 C37.9982427,1.46428571 38.7011742,1.03869048 39.4680086,0.744047619 C40.234843,0.416666667 40.9377746,0.285714286 41.6087547,0.285714286 C42.3436377,0.285714286 42.8229092,0.416666667 43.1424235,0.678571429 C43.4299864,0.94047619 43.5897436,1.36607143 43.5897436,1.95535714 C43.5897436,2.34821429 43.5258407,2.9047619 43.4299864,3.52678571 C43.3021807,4.18154762 43.1424235,5.06547619 42.886812,6.17857143 C42.4714434,8.04464286 42.1519291,9.68154762 41.8963176,11.1547619 C41.6726576,12.5952381 41.5448518,14.0357143 41.5448518,15.4434524 C41.5448518,16.1636905 41.6087547,16.6875 41.704609,17.014881 C41.8324147,17.3422619 41.9921719,17.6696429 42.2477834,17.9970238 C41.8324147,18.389881 41.3850947,18.6517857 40.8419203,18.8482143 C40.3306973,19.0446429 39.8514258,19.1428571 39.3721543,19.1428571 C38.4136113,19.110119 37.7426312,18.8482143 37.359214,18.2916667 Z" id="Path"></path>
                    <path d="M56.071761,4.95788604 C56.3087078,5.13129645 56.4102564,5.51279934 56.4102564,6.03303055 C56.4102564,6.48389761 56.2748583,7.07349298 56.0040619,7.73245252 C55.3270712,7.48967795 54.5485318,7.38563171 53.7022933,7.38563171 L53.2960988,7.38563171 C52.9237539,8.73823287 52.6191081,10.0561519 52.3821613,11.3393889 C52.1452145,12.6226259 52.0098164,13.9058629 51.9759668,15.1890999 L53.3299484,17.5474814 C52.7883558,18.0677126 52.2129136,18.4492155 51.5697724,18.7266722 C50.9266311,19.0041288 50.3173394,19.1428571 49.7080477,19.1428571 C48.8279597,19.1428571 48.1509689,18.9347647 47.6432259,18.4838976 C47.1354828,18.0330306 46.898536,17.2006606 46.898536,15.9867878 C46.898536,15.1890999 47.0000846,14.2873658 47.2031819,13.3162675 C47.4062791,12.3104872 47.6770754,11.0619323 48.0155708,9.53592073 L48.4217653,7.940545 C48.2863671,7.940545 48.0832699,7.97522709 47.8124736,7.97522709 C47.1693323,7.97522709 46.7292883,7.87118084 46.4923415,7.69777044 C46.2553948,7.52436003 46.1538462,7.17753922 46.1538462,6.65730801 C46.1538462,6.17175888 46.2892443,5.5821635 46.5600406,4.95788604 C47.2370314,5.16597853 47.9817212,5.27002477 48.7941102,5.27002477 C48.7602606,4.54170107 48.5571634,3.77869529 48.218668,2.94632535 C48.8279597,2.39141206 49.5388,1.940545 50.2834899,1.62840628 C51.0281797,1.28158547 51.8067191,1.14285714 52.5852585,1.14285714 C53.2622493,1.14285714 53.7361428,1.28158547 54.0069392,1.59372419 C54.2777355,1.90586292 54.4469832,2.39141206 54.4469832,3.05037159 C54.4469832,3.3971924 54.3454345,3.9521057 54.1423373,4.78447564 C54.2777355,4.78447564 54.4808327,4.74979356 54.751629,4.74979356 C55.3947702,4.6804294 55.8348143,4.74979356 56.071761,4.95788604 Z" id="Path"></path>
                    <path d="M71.938519,17.9428571 C71.001221,18.7657143 69.9992818,19.1428571 68.9327013,19.1428571 C68.1570064,19.1428571 67.5429146,18.9028571 67.0904259,18.4228571 C66.6702578,17.9428571 66.4440135,17.2571429 66.4440135,16.4 C66.4440135,16.1257143 66.4763341,15.8171429 66.5086547,15.5085714 L66.2824104,15.3714286 C65.8622423,16.5714286 65.2158299,17.4971429 64.3754938,18.1485714 C63.5351577,18.8 62.6301803,19.1428571 61.628241,19.1428571 C60.7555843,19.1428571 59.9798894,18.9028571 59.333477,18.4228571 C58.6870646,17.9428571 58.1699346,17.2571429 57.8144078,16.4 C57.458881,15.5085714 57.2649573,14.5142857 57.2649573,13.3485714 C57.2649573,11.4628571 57.6528047,9.78285714 58.4284996,8.30857143 C59.2041945,6.83428571 60.3030956,5.73714286 61.7252029,4.91428571 C63.1149896,4.09142857 64.7310206,3.71428571 66.5409754,3.71428571 C67.1873878,3.71428571 67.8014796,3.78285714 68.3832507,3.92 C68.5125332,4.22857143 68.5771745,4.64 68.6418157,5.18857143 C69.2882281,4.64 70.0316024,4.36571429 70.9365798,4.36571429 C71.4860303,4.36571429 71.9061984,4.53714286 72.197084,4.88 C72.4879695,5.22285714 72.6495726,5.70285714 72.6495726,6.32 C72.6495726,6.66285714 72.5849314,7.14285714 72.4879695,7.76 C72.3910077,8.37714286 72.2617252,9.02857143 72.1001221,9.74857143 C71.8092365,11.0857143 71.5829922,12.2171429 71.4213891,13.1428571 C71.259786,14.0685714 71.1951447,14.9257143 71.1951447,15.7485714 C71.2274653,16.7428571 71.4537097,17.4971429 71.938519,17.9428571 Z M66.4763341,12.7314286 C67.1550672,11.2914286 67.6398765,9.06285714 67.930762,6.01142857 C66.7995403,6.11428571 65.7976011,6.49142857 64.8926237,7.07428571 C63.9876463,7.69142857 63.2442721,8.44571429 62.7271421,9.37142857 C62.1776916,10.2971429 61.9191266,11.2914286 61.9191266,12.3542857 C61.9191266,13.1771429 62.0807297,13.7942857 62.4039359,14.2057143 C62.7271421,14.6514286 63.1796308,14.8571429 63.7290814,14.8571429 C64.8926237,14.8914286 65.7976011,14.1714286 66.4763341,12.7314286 Z" id="Shape"></path>
                    <path d="M75.8614485,18.3560342 C75.4403959,17.8428888 75.2136752,17.0902756 75.2136752,16.0639848 C75.2136752,15.4140006 75.3756185,14.148242 75.6995052,12.2324992 C76.0233918,10.3509661 76.3472785,8.60627178 76.7035538,7.0668356 L75.5051732,5.08267342 C77.0598291,4.15901172 78.4849303,3.71428571 79.8128655,3.71428571 C80.4606388,3.71428571 80.9140801,3.88533418 81.2379667,4.19322141 C81.5618534,4.53531834 81.7237967,4.98004435 81.7237967,5.56160912 C81.7237967,5.97212544 81.6590193,6.41685144 81.5618534,6.86157745 C81.4646874,7.30630345 81.3351327,7.71681977 81.1731894,8.09312639 L81.39991,8.22996516 C83.0517319,5.2195122 85.1893837,3.71428571 87.7480882,3.71428571 C88.6873594,3.71428571 89.39991,3.95375356 89.88574,4.43268926 C90.3391813,4.91162496 90.5982906,5.6642382 90.5982906,6.69052898 C90.5982906,7.23788407 90.5335133,7.81944884 90.4363473,8.43522331 C90.3391813,9.05099778 90.177238,9.87203041 89.9505173,10.8641115 C89.691408,11.9588217 89.5294647,12.8482737 89.39991,13.5666772 C89.2703554,14.2508711 89.2379667,14.9692746 89.2379667,15.6534685 C89.2379667,16.6797593 89.39991,17.4323725 89.7237967,17.9113082 C88.9140801,18.7323408 88.0395861,19.1086475 87.1650922,19.1086475 C86.225821,19.1086475 85.5132704,18.8691796 85.0922177,18.3560342 C84.6711651,17.8428888 84.4444444,17.0902756 84.4444444,16.0639848 C84.4444444,15.3797909 84.5092218,14.6955971 84.6387764,14.0114032 C84.7683311,13.2929997 84.9950517,12.5061768 85.254161,11.582515 C85.448493,10.8299018 85.6104363,10.248337 85.7076023,9.80361102 C85.8047683,9.35888502 85.837157,8.9825784 85.837157,8.64048147 C85.837157,7.95628761 85.5780477,7.61419069 85.0598291,7.61419069 C84.4768331,7.61419069 83.7642825,7.95628761 82.9869546,8.67469116 C82.2096266,9.39309471 81.5294647,10.3509661 80.9464687,11.6167247 C80.3634728,12.8482737 80.1043635,14.2166614 80.1043635,15.6876782 C80.1043635,16.713969 80.2663068,17.4665822 80.5901934,17.9455179 C79.7804768,18.7665505 78.9059829,19.1428571 78.031489,19.1428571 C76.9950517,19.1086475 76.3148898,18.8691796 75.8614485,18.3560342 Z" id="Path"></path>
                    <path d="M115.207225,11.2095238 C115.916788,11.9761905 116.239316,12.9095238 116.239316,14.0428571 C116.239316,15.0761905 115.916788,15.9761905 115.239478,16.7428571 C114.562167,17.5095238 113.594582,18.1095238 112.368973,18.5095238 C111.143364,18.9095238 109.691985,19.1428571 108.014836,19.1428571 C105.499113,19.1428571 103.6607,18.8428571 102.53185,18.2095238 C101.403,17.6095238 100.854701,16.5761905 100.854701,15.2095238 C100.854701,14.5095238 100.951459,13.5095238 101.144977,12.1761905 C101.338494,10.8428571 101.693275,8.60952381 102.209321,5.47619048 L100.983712,2.90952381 C102.725367,1.74285714 104.33801,1.14285714 105.757136,1.14285714 C106.724722,1.14285714 107.305273,1.60952381 107.466538,2.57619048 C109.046928,1.64285714 110.627318,1.17619048 112.143203,1.17619048 C113.368811,1.17619048 114.36865,1.50952381 115.078213,2.14285714 C115.787776,2.77619048 116.142558,3.67619048 116.142558,4.80952381 C116.142558,5.94285714 115.820029,6.90952381 115.142719,7.74285714 C114.497662,8.57619048 113.530076,9.24285714 112.239961,9.74285714 C113.562329,9.94285714 114.529915,10.4428571 115.207225,11.2095238 Z M110.401548,15.6761905 C110.949847,15.1761905 111.20787,14.5428571 111.20787,13.7095238 C111.20787,12.9428571 110.949847,12.3428571 110.466054,11.9095238 C109.982261,11.4761905 109.272698,11.2761905 108.369618,11.2761905 C107.627802,11.2761905 106.918239,11.4095238 106.176423,11.6761905 C105.982906,13.2428571 105.821642,14.6428571 105.724883,15.8761905 C106.079665,16.0428571 106.498952,16.1761905 106.950492,16.2761905 C107.402032,16.3761905 107.853572,16.4095238 108.272859,16.4095238 C109.175939,16.4095238 109.853249,16.1761905 110.401548,15.6761905 Z M106.498952,9.44285714 C107.918078,9.34285714 109.046928,9.00952381 109.885502,8.40952381 C110.724077,7.80952381 111.143364,7.04285714 111.143364,6.10952381 C111.143364,4.90952381 110.498307,4.30952381 109.175939,4.30952381 C108.466376,4.30952381 107.853572,4.40952381 107.305273,4.64285714 C107.079503,5.64285714 106.82148,7.24285714 106.498952,9.44285714 Z" id="Shape"></path>
                    <path d="M134.331681,17.9428571 C133.394383,18.7657143 132.392444,19.1428571 131.325864,19.1428571 C130.550169,19.1428571 129.936077,18.9028571 129.483588,18.4228571 C129.06342,17.9428571 128.837176,17.2571429 128.837176,16.4 C128.837176,16.1257143 128.869497,15.8171429 128.901817,15.5085714 L128.675573,15.3714286 C128.255405,16.5714286 127.608992,17.4971429 126.768656,18.1485714 C125.92832,18.8 125.023343,19.1428571 124.021403,19.1428571 C123.148747,19.1428571 122.373052,18.9028571 121.726639,18.4228571 C121.080227,17.9428571 120.563097,17.2571429 120.20757,16.4 C119.852043,15.5085714 119.65812,14.5142857 119.65812,13.3485714 C119.65812,11.4628571 120.045967,9.78285714 120.821662,8.30857143 C121.597357,6.83428571 122.696258,5.73714286 124.118365,4.91428571 C125.508152,4.09142857 127.124183,3.71428571 128.934138,3.71428571 C129.58055,3.71428571 130.194642,3.78285714 130.776413,3.92 C130.905696,4.22857143 130.970337,4.64 131.034978,5.18857143 C131.681391,4.64 132.424765,4.36571429 133.329742,4.36571429 C133.879193,4.36571429 134.299361,4.53714286 134.590246,4.88 C134.881132,5.22285714 135.042735,5.70285714 135.042735,6.32 C135.042735,6.66285714 134.978094,7.14285714 134.881132,7.76 C134.78417,8.37714286 134.654888,9.02857143 134.493284,9.74857143 C134.202399,11.0857143 133.976155,12.2171429 133.814551,13.1428571 C133.652948,14.0685714 133.588307,14.9257143 133.588307,15.7485714 C133.620628,16.7428571 133.846872,17.4971429 134.331681,17.9428571 Z M128.869497,12.7314286 C129.54823,11.2914286 130.033039,9.06285714 130.323924,6.01142857 C129.192703,6.11428571 128.190763,6.49142857 127.285786,7.07428571 C126.380809,7.69142857 125.637434,8.44571429 125.120305,9.37142857 C124.570854,10.2971429 124.312289,11.2914286 124.312289,12.3542857 C124.312289,13.1771429 124.473892,13.7942857 124.797098,14.2057143 C125.120305,14.6514286 125.572793,14.8571429 126.122244,14.8571429 C127.253465,14.8914286 128.190763,14.1714286 128.869497,12.7314286 Z" id="Shape"></path>
                    <path d="M150.983356,15.5681988 C151.501574,16.1257143 152.181736,16.5848447 152.991453,16.912795 C152.08457,18.3885714 150.88619,19.1428571 149.4287,19.1428571 C148.618983,19.1428571 147.938821,18.8804969 147.355825,18.3557764 C146.77283,17.8310559 146.157445,16.9783851 145.509672,15.7649689 L144.34368,13.5677019 L142.465137,14.5515528 C142.465137,14.748323 142.432749,15.0434783 142.432749,15.4370186 C142.432749,16.1585093 142.497526,16.6832298 142.594692,17.0111801 C142.724247,17.3391304 142.88619,17.6670807 143.145299,17.9950311 C142.724247,18.3885714 142.270805,18.6509317 141.720198,18.8477019 C141.201979,19.044472 140.716149,19.1428571 140.230319,19.1428571 C139.291048,19.1428571 138.610886,18.8804969 138.222222,18.3229814 C137.80117,17.7654658 137.606838,16.912795 137.606838,15.7649689 C137.606838,15.1418634 137.736392,14.0268323 137.995502,12.4526708 C138.254611,10.8785093 138.578498,8.81242236 139.031939,6.32 C139.096716,5.7952795 139.193882,5.33614907 139.258659,4.9426087 C139.323437,4.54906832 139.388214,4.18832298 139.452991,3.8931677 L138.157445,1.9910559 C138.869996,1.4663354 139.582546,1.04 140.359874,0.74484472 C141.137202,0.41689441 141.849753,0.285714286 142.529915,0.285714286 C143.274854,0.285714286 143.760684,0.41689441 144.08457,0.679254658 C144.376068,0.941614907 144.538012,1.36795031 144.538012,1.95826087 C144.538012,2.38459627 144.473234,2.90931677 144.376068,3.53242236 C144.246514,4.15552795 144.08457,5.04099379 143.825461,6.18881988 C143.307242,8.35329193 142.950967,10.2554037 142.724247,11.8951553 L143.37202,11.3376398 C144.376068,10.517764 145.153396,9.86186335 145.671615,9.40273292 C146.189834,8.91080745 146.610886,8.41888199 146.934773,7.92695652 C147.258659,7.43503106 147.420603,6.91031056 147.420603,6.35279503 C147.420603,5.95925466 147.355825,5.59850932 147.193882,5.20496894 C148.262708,4.68024845 149.234368,4.4178882 150.108862,4.4178882 C150.821413,4.4178882 151.404408,4.61465839 151.825461,5.04099379 C152.246514,5.46732919 152.473234,5.99204969 152.473234,6.68074534 C152.473234,7.50062112 152.149348,8.28770186 151.533963,9.04198758 C150.918578,9.79627329 149.882141,10.550559 148.521817,11.3704348 L149.720198,13.6004969 C150.044085,14.3547826 150.465137,15.0106832 150.983356,15.5681988 Z" id="Path"></path>
                    <path d="M168.02853,10.2628571 C167.238488,11.0857143 166.139298,11.7371429 164.696612,12.1485714 C163.253925,12.5942857 161.536441,12.8 159.578509,12.8 L159.578509,13.0057143 C159.578509,14.1371429 159.784607,14.9942857 160.162454,15.6457143 C160.5403,16.2628571 161.089895,16.6057143 161.776889,16.6057143 C162.601281,16.6057143 163.322624,16.2971429 163.83787,15.68 C164.387464,15.0628571 164.662262,14.24 164.696612,13.2457143 C165.692752,13.2457143 166.448445,13.4171429 166.96369,13.7942857 C167.478936,14.1714286 167.753733,14.6857143 167.753733,15.3714286 C167.753733,16.0571429 167.478936,16.7085714 166.894991,17.2571429 C166.311046,17.84 165.521004,18.2857143 164.524863,18.6285714 C163.528722,18.9714286 162.429533,19.1428571 161.227294,19.1428571 C159.166313,19.1428571 157.551878,18.5942857 156.418339,17.4971429 C155.25045,16.4 154.700855,14.8914286 154.700855,12.9714286 C154.700855,11.2228571 155.113051,9.61142857 155.971793,8.20571429 C156.796185,6.8 157.964074,5.70285714 159.47546,4.91428571 C160.952496,4.12571429 162.635631,3.71428571 164.456164,3.71428571 C165.96755,3.71428571 167.135439,4.02285714 167.994181,4.64 C168.818573,5.25714286 169.230769,6.14857143 169.230769,7.28 C169.19642,8.44571429 168.818573,9.44 168.02853,10.2628571 Z M161.330343,7.86285714 C160.643349,8.68571429 160.128104,9.71428571 159.818957,10.9828571 C161.467742,10.8457143 162.70433,10.5028571 163.597422,9.95428571 C164.490513,9.40571429 164.937059,8.72 164.937059,7.82857143 C164.937059,7.45142857 164.799661,7.17714286 164.559213,6.93714286 C164.318765,6.73142857 163.975268,6.59428571 163.597422,6.59428571 C162.773029,6.62857143 162.017336,7.04 161.330343,7.86285714 Z" id="Shape"></path>
                    <path d="M172.457798,18.4197935 C172.026896,17.9056149 171.794872,17.1514863 171.794872,16.1231291 C171.794872,15.5403934 171.960603,14.3063647 172.25892,12.4553218 C172.557237,10.6042789 172.921846,8.82179308 173.286455,7.10786443 L172.026896,5.1197072 C172.623529,4.70836433 173.220162,4.3655786 173.783649,4.09135002 C174.347136,3.85140001 174.910623,3.71428571 175.47411,3.71428571 C176.137036,3.71428571 176.601084,3.88567858 176.932547,4.19418574 C177.26401,4.53697146 177.429742,4.98259291 177.429742,5.56532865 C177.429742,6.07950725 177.363449,6.59368584 177.230864,7.07358586 C177.098279,7.55348588 176.899401,8.17050019 176.667377,8.85607165 L176.899401,8.99318594 C177.297157,7.79343589 177.694912,6.83363585 178.092668,6.07950725 C178.490423,5.35965721 178.921325,4.77692147 179.451666,4.3655786 C179.982006,3.95423572 180.611786,3.74856429 181.374151,3.74856429 C182.103369,3.74856429 182.700002,3.95423572 183.130904,4.39985717 C183.561806,4.84547862 183.760684,5.42821436 183.760684,6.14806439 C183.760684,7.00502871 183.495513,7.72487875 182.965173,8.30761449 C182.434832,8.85607165 181.672467,9.13030024 180.711225,9.13030024 C179.94886,9.13030024 179.285934,9.40452882 178.656155,9.98726456 C178.026375,10.5700003 177.562327,11.3584075 177.197718,12.3524861 C176.833108,13.3465647 176.667377,14.443479 176.667377,15.6775077 C176.667377,16.7058648 176.833108,17.4599935 177.164571,17.9398935 C176.335914,18.7625792 175.440964,19.1396435 174.546014,19.1396435 C173.617918,19.1739221 172.888699,18.9339721 172.457798,18.4197935 Z" id="Path"></path>
                    <path d="M200,5.89637306 C200,7.75277572 199.402815,10.0325685 198.241623,12.7031828 C197.047253,15.3737972 195.421584,17.6861584 193.331438,19.6402665 C191.241291,21.5943745 188.852552,22.5714286 186.198398,22.5714286 C184.838144,22.5714286 183.809659,22.3434493 183.112944,21.8549223 C182.416228,21.3989637 182.051282,20.7150259 182.051282,19.8031088 C182.051282,19.3797187 182.18399,18.9237602 182.416228,18.5003701 C182.648467,18.07698 182.913882,17.7512953 183.212475,17.5233161 C183.47789,17.9467061 183.876013,18.3049593 184.373667,18.5980755 C184.871321,18.8911917 185.501683,19.0214656 186.264752,19.0214656 C187.127352,19.0214656 188.023129,18.7609178 188.952083,18.2398224 C188.023129,18.0118431 187.359591,17.5233161 186.895114,16.8068098 C186.430637,16.0903035 186.198398,15.2760918 186.098867,14.3641747 C185.999336,13.4522576 185.932983,12.2797927 185.932983,10.8467802 C185.932983,9.70688379 185.899806,8.82753516 185.833452,8.14359734 C185.800275,7.45965951 185.667567,6.84085862 185.501683,6.22205774 C185.335798,5.60325685 185.004029,5.11472983 184.605905,4.75647668 C185.435329,4.07253886 186.39746,3.74685418 187.459121,3.74685418 C188.388075,3.74685418 189.084791,4.00740192 189.549268,4.52849741 C190.013745,5.04959289 190.345514,5.70096225 190.478222,6.51517395 C190.644106,7.32938564 190.71046,8.33900814 190.71046,9.51147298 L190.677283,11.9541081 C190.677283,13.0288675 190.743637,13.8756477 190.876345,14.5595855 C191.009053,15.2435233 191.274468,15.7646188 191.639414,16.0903035 C192.701076,14.9178386 193.563676,13.4522576 194.227215,11.7586973 C194.890753,10.0651369 195.222522,8.1761658 195.222522,6.09178386 C195.222522,5.66839378 195.189345,5.21243523 195.089815,4.72390822 C195.421584,4.43079201 195.819707,4.17024426 196.317361,4.00740192 C196.815015,3.84455959 197.279492,3.71428571 197.743969,3.71428571 C199.236931,3.84455959 200,4.52849741 200,5.89637306 Z" id="Path"></path>
                </g>
            </g>
        </g>
    </g>
</svg>