<?xml version="1.0" encoding="UTF-8"?>
<svg width="15px" height="17px" viewBox="0 0 15 17" version="1.1" xmlns="http://www.w3.org/2000/svg" xmlns:xlink="http://www.w3.org/1999/xlink">
    <title></title>
    <g id="POS" stroke="none" stroke-width="1" fill="none" fill-rule="evenodd" opacity="0.198195685">
        <g id="POS-/-Empty" transform="translate(-766.000000, -17.000000)" fill="#090909" fill-rule="nonzero">
            <path d="M777.250013,33.2857158 C778.133943,33.2857158 778.857158,32.3415183 778.857158,31.2366062 L778.857158,21.7142735 L779.821445,21.7142735 C780.002249,21.7142735 780.142874,21.5736483 780.142874,21.3928445 L780.142874,20.7499866 C780.142874,20.5691828 780.002249,20.4285576 779.821445,20.4285576 L776.717647,20.4285576 L776.014521,18.7511003 C775.813628,18.2589122 775.210948,17.857126 774.678582,17.857126 L771.464292,17.857126 C770.931926,17.857126 770.329246,18.2589122 770.128353,18.7511003 L769.425227,20.4285576 L766.321429,20.4285576 C766.140625,20.4285576 766,20.5691828 766,20.7499866 L766,21.3928445 C766,21.5736483 766.140625,21.7142735 766.321429,21.7142735 L767.285716,21.7142735 L767.285716,31.2767849 C767.285716,32.3816969 768.008931,33.2857158 768.892861,33.2857158 L777.250013,33.2857158 Z M775.321434,20.4285576 L770.821434,20.4285576 L771.313622,19.253333 C771.343756,19.2131544 771.424114,19.1528865 771.484382,19.1428418 L774.668537,19.1428418 C774.71876,19.1528865 774.809162,19.2131544 774.839296,19.253333 L775.321434,20.4285576 Z M777.250013,32 L768.892861,32 C768.842637,32 768.571432,31.7187497 768.571432,31.2366062 L768.571432,21.7142735 L777.571442,21.7142735 L777.571442,31.2366062 C777.571442,31.7187497 777.300237,32 777.250013,32 Z M770.821434,30.0714263 C771.002238,30.0714263 771.142863,29.9308011 771.142863,29.7499973 L771.142863,23.9642761 C771.142863,23.7834723 771.002238,23.6428472 770.821434,23.6428472 L770.178576,23.6428472 C769.997773,23.6428472 769.857147,23.7834723 769.857147,23.9642761 L769.857147,29.7499973 C769.857147,29.9308011 769.997773,30.0714263 770.178576,30.0714263 L770.821434,30.0714263 Z M773.392866,30.0714263 C773.57367,30.0714263 773.714295,29.9308011 773.714295,29.7499973 L773.714295,23.9642761 C773.714295,23.7834723 773.57367,23.6428472 773.392866,23.6428472 L772.750008,23.6428472 C772.569204,23.6428472 772.428579,23.7834723 772.428579,23.9642761 L772.428579,29.7499973 C772.428579,29.9308011 772.569204,30.0714263 772.750008,30.0714263 L773.392866,30.0714263 Z M775.964298,30.0714263 C776.145101,30.0714263 776.285727,29.9308011 776.285727,29.7499973 L776.285727,23.9642761 C776.285727,23.7834723 776.145101,23.6428472 775.964298,23.6428472 L775.32144,23.6428472 C775.140636,23.6428472 775.000011,23.7834723 775.000011,23.9642761 L775.000011,29.7499973 C775.000011,29.9308011 775.140636,30.0714263 775.32144,30.0714263 L775.964298,30.0714263 Z" id=""></path>
        </g>
    </g>
</svg>