<?xml version="1.0" encoding="UTF-8"?>
<svg width="16px" height="17px" viewBox="0 0 16 17" version="1.1" xmlns="http://www.w3.org/2000/svg" xmlns:xlink="http://www.w3.org/1999/xlink">
    <title></title>
    <g id="POS" stroke="none" stroke-width="1" fill="none" fill-rule="evenodd">
        <g id="POS-/-Checkout" transform="translate(-981.000000, -207.000000)" fill="#FFFFFF" fill-rule="nonzero">
            <path d="M993.178585,223.285716 C994.062514,223.285716 994.78573,222.341518 994.78573,221.236606 L994.78573,211.714273 L995.750016,211.714273 C995.93082,211.714273 996.071445,211.573648 996.071445,211.392844 L996.071445,210.749987 C996.071445,210.569183 995.93082,210.428558 995.750016,210.428558 L992.646218,210.428558 L991.943092,208.7511 C991.742199,208.258912 991.13952,207.857126 990.607153,207.857126 L987.392864,207.857126 C986.860497,207.857126 986.257818,208.258912 986.056925,208.7511 L985.353799,210.428558 L982.25,210.428558 C982.069197,210.428558 981.928571,210.569183 981.928571,210.749987 L981.928571,211.392844 C981.928571,211.573648 982.069197,211.714273 982.25,211.714273 L983.214287,211.714273 L983.214287,221.276785 C983.214287,222.381697 983.937502,223.285716 984.821432,223.285716 L993.178585,223.285716 Z M991.250006,210.428558 L986.750006,210.428558 L987.242194,209.253333 C987.272328,209.213154 987.352685,209.152886 987.412953,209.142842 L990.597109,209.142842 C990.647332,209.152886 990.737734,209.213154 990.767868,209.253333 L991.250006,210.428558 Z M993.178585,222 L984.821432,222 C984.771209,222 984.500003,221.71875 984.500003,221.236606 L984.500003,211.714273 L993.500014,211.714273 L993.500014,221.236606 C993.500014,221.71875 993.228808,222 993.178585,222 Z M986.750006,220.071426 C986.93081,220.071426 987.071435,219.930801 987.071435,219.749997 L987.071435,213.964276 C987.071435,213.783472 986.93081,213.642847 986.750006,213.642847 L986.107148,213.642847 C985.926344,213.642847 985.785719,213.783472 985.785719,213.964276 L985.785719,219.749997 C985.785719,219.930801 985.926344,220.071426 986.107148,220.071426 L986.750006,220.071426 Z M989.321437,220.071426 C989.502241,220.071426 989.642866,219.930801 989.642866,219.749997 L989.642866,213.964276 C989.642866,213.783472 989.502241,213.642847 989.321437,213.642847 L988.678579,213.642847 C988.497776,213.642847 988.357151,213.783472 988.357151,213.964276 L988.357151,219.749997 C988.357151,219.930801 988.497776,220.071426 988.678579,220.071426 L989.321437,220.071426 Z M991.892869,220.071426 C992.073673,220.071426 992.214298,219.930801 992.214298,219.749997 L992.214298,213.964276 C992.214298,213.783472 992.073673,213.642847 991.892869,213.642847 L991.250011,213.642847 C991.069207,213.642847 990.928582,213.783472 990.928582,213.964276 L990.928582,219.749997 C990.928582,219.930801 991.069207,220.071426 991.250011,220.071426 L991.892869,220.071426 Z" id=""></path>
        </g>
    </g>
</svg>